Coordinates
version=1
nRows=29
nColumns=22
inDegrees=yes

Units are S.I. units (second, meters, Newtons, ...)
If the header above contains a line with 'inDegrees', this indicates whether rotational values are in degrees (yes) or radians (no).

endheader
time	pelvis_tilt	pelvis_list	pelvis_rotation	pelvis_tx	pelvis_ty	pelvis_tz	hip_flexion_r	hip_adduction_r	hip_rotation_r	knee_angle_r	ankle_angle_r	subtalar_angle_r	hip_flexion_l	hip_adduction_l	hip_rotation_l	knee_angle_l	ankle_angle_l	subtalar_angle_l	lumbar_extension	lumbar_bending	lumbar_rotation
      0.01000000	     -2.44591279	     -6.54959104	      6.07387925	      1.19481346	      0.96501170	     -0.33738173	      6.08541984	      6.65209176	     -6.12831192	    -15.75582513	      9.69296621	      1.51094786	      2.03322831	     -6.63590200	      3.70561160	     -6.89890818	      9.94884378	     -1.20352415	      3.27811081	      5.81414154	     -8.84776742
      0.02000000	     -2.44028785	     -6.53702553	      6.09534725	      1.19484061	      0.96501439	     -0.33731932	      6.09405337	      6.64000822	     -6.16339625	    -15.78587699	      9.70651418	      1.53000178	      2.02685280	     -6.62804133	      3.70762644	     -6.89335941	      9.91462096	     -1.19960586	      3.24258161	      5.80940125	     -8.84173881
      0.03000000	     -2.44942067	     -6.53110861	      6.11128256	      1.19489869	      0.96499785	     -0.33723833	      6.09897669	      6.63926540	     -6.16248846	    -15.78363209	      9.70841662	      1.53098560	      2.03245404	     -6.62672384	      3.70492678	     -6.88446165	      9.91576610	     -1.19958446	      3.22531364	      5.81407689	     -8.83699923
      0.04000000	     -2.45038256	     -6.51834653	      6.13213070	      1.19495885	      0.96498328	     -0.33713675	      6.10709285	      6.63069985	     -6.18153620	    -15.80568043	      9.73432633	      1.54076153	      2.03071225	     -6.62070649	      3.71912031	     -6.87948246	      9.91494635	     -1.19423553	      3.19560189	      5.80822936	     -8.80495358
      0.05000000	     -2.46070063	     -6.51175501	      6.14714305	      1.19503733	      0.96496159	     -0.33702816	      6.11250194	      6.63078491	     -6.18121165	    -15.80394626	      9.73623175	      1.54141799	      2.03613324	     -6.62017563	      3.71511932	     -6.87078420	      9.91608881	     -1.19381855	      3.17776659	      5.81327958	     -8.80017362
      0.06000000	     -2.46713487	     -6.50384111	      6.16062336	      1.19512874	      0.96493388	     -0.33690285	      6.12535267	      6.62736711	     -6.20378813	    -15.82636400	      9.76143285	      1.54741134	      2.03650831	     -6.62027287	      3.71184469	     -6.86327454	      9.92053104	     -1.18407528	      3.15676073	      5.81428794	     -8.75998440
      0.07000000	     -2.47765821	     -6.49707514	      6.17418246	      1.19522347	      0.96490513	     -0.33677425	      6.13053040	      6.62817154	     -6.20371369	    -15.82543973	      9.76357979	      1.54790626	      2.04136117	     -6.62110368	      3.70768929	     -6.85575374	      9.92205330	     -1.18315630	      3.14181083	      5.81895761	     -8.75381798
      0.08000000	     -2.49458065	     -6.49452166	      6.17753846	      1.19534012	      0.96485997	     -0.33662576	      6.15215214	      6.63051788	     -6.22570598	    -15.84525690	      9.78972290	      1.55144530	      2.04893192	     -6.62731735	      3.69756024	     -6.84593154	      9.93154331	     -1.17003595	      3.13855896	      5.82586036	     -8.70211485
      0.09000000	     -2.52300348	     -6.49160453	      6.17614773	      1.19544962	      0.96479674	     -0.33646889	      6.18784878	      6.63243081	     -6.23210574	    -15.86703183	      9.81228698	      1.55623766	      2.06876504	     -6.63227486	      3.67994078	     -6.83725362	      9.94201044	     -1.15105207	      3.14819776	      5.83139861	     -8.66410490
      0.10000000	     -2.53411937	     -6.48531772	      6.18878687	      1.19556221	      0.96475995	     -0.33633409	      6.19265415	      6.63428691	     -6.23084949	    -15.86706311	      9.81357025	      1.55650810	      2.07414937	     -6.63387838	      3.67611267	     -6.83188123	      9.94317729	     -1.14989321	      3.13918235	      5.83456044	     -8.65852990
      0.11000000	     -2.61135879	     -6.48662939	      6.17312379	      1.19562955	      0.96462935	     -0.33614122	      6.29955949	      6.63679761	     -6.22282493	    -15.92067593	      9.84615407	      1.55987470	      2.15568094	     -6.63863695	      3.65076923	     -6.83792455	      9.95816329	     -1.10960852	      3.20249528	      5.83524954	     -8.61128174
      0.12000000	     -2.63852466	     -6.48040404	      6.18583378	      1.19575709	      0.96457262	     -0.33601517	      6.31487196	      6.63530554	     -6.23713838	    -15.91064155	      9.85621526	      1.55928104	      2.17719508	     -6.63780464	      3.64539210	     -6.83223996	      9.96360373	     -1.10158643	      3.21731085	      5.83442923	     -8.59280662
      0.13000000	     -2.70055255	     -6.47214390	      6.18784837	      1.19582464	      0.96446782	     -0.33586214	      6.39805001	      6.62804671	     -6.23344981	    -15.95220009	      9.88159392	      1.55214853	      2.24428679	     -6.63135909	      3.63963733	     -6.83855774	      9.96441652	     -1.07338915	      3.26456662	      5.82400055	     -8.57436062
      0.14000000	     -2.71429674	     -6.46659994	      6.20179962	      1.19596134	      0.96443039	     -0.33572385	      6.40517092	      6.63127883	     -6.23286523	    -15.95509168	      9.88495333	      1.55105669	      2.24637579	     -6.63385489	      3.62933250	     -6.82495892	      9.96909655	     -1.07205949	      3.26681377	      5.81871398	     -8.57748791
      0.15000000	     -2.74086047	     -6.45657814	      6.20225343	      1.19609231	      0.96438270	     -0.33557894	      6.42929268	      6.62763285	     -6.23171861	    -15.96414044	      9.90343408	      1.54510094	      2.25163198	     -6.63024982	      3.61437843	     -6.79675038	      9.97080795	     -1.06603004	      3.28076737	      5.80920286	     -8.58276855
      0.16000000	     -2.74974597	     -6.45139180	      6.21330996	      1.19621648	      0.96436011	     -0.33542933	      6.43271212	      6.63282420	     -6.22926566	    -15.96681248	      9.90502596	      1.54448774	      2.25326311	     -6.63402559	      3.61024752	     -6.79139804	      9.97077943	     -1.06537288	      3.27575018	      5.80028535	     -8.58143314
      0.17000000	     -2.77543728	     -6.43405634	      6.20916772	      1.19637550	      0.96432320	     -0.33527355	      6.45502282	      6.62319116	     -6.21748834	    -15.98057388	      9.92787461	      1.53463851	      2.25125999	     -6.62328582	      3.58812616	     -6.75788134	      9.96682671	     -1.05506961	      3.29528335	      5.77776161	     -8.59918919
      0.18000000	     -2.79552419	     -6.41669557	      6.20842964	      1.19652815	      0.96429715	     -0.33511363	      6.47100837	      6.61466143	     -6.20606478	    -15.99230539	      9.94599596	      1.52275059	      2.25163220	     -6.61332112	      3.56910910	     -6.73684449	      9.96022395	     -1.03904594	      3.30937447	      5.75278923	     -8.60600794
      0.19000000	     -2.80214513	     -6.41287940	      6.21177747	      1.19667876	      0.96429068	     -0.33494019	      6.47045408	      6.62242245	     -6.20541169	    -15.99502576	      9.94673726	      1.52208156	      2.24962230	     -6.61987332	      3.56589750	     -6.73500838	      9.96057641	     -1.03771286	      3.30927295	      5.73948362	     -8.60806636
      0.20000000	     -2.81485843	     -6.40804746	      6.21398404	      1.19686269	      0.96427817	     -0.33476639	      6.47235370	      6.62905607	     -6.20035169	    -15.99520802	      9.95553181	      1.51656963	      2.24081194	     -6.62554046	      3.54201840	     -6.71030109	      9.96503750	     -1.02860178	      3.32214449	      5.72447260	     -8.63442562
      0.21000000	     -2.82485534	     -6.40658600	      6.20727995	      1.19706446	      0.96427122	     -0.33457041	      6.46906522	      6.64021886	     -6.19853934	    -15.99169015	      9.96474494	      1.50949459	      2.23064241	     -6.63622596	      3.52459507	     -6.69578395	      9.96617990	     -1.01381834	      3.33470851	      5.71177956	     -8.65486545
      0.22000000	     -2.83018822	     -6.40441957	      6.20348400	      1.19725332	      0.96427217	     -0.33437272	      6.46488851	      6.65055166	     -6.19989683	    -15.99389555	      9.96543266	      1.50882820	      2.22544626	     -6.64612384	      3.52292622	     -6.69796602	      9.96637924	     -1.01162491	      3.33925007	      5.69727989	     -8.65927829
      0.23000000	     -2.83879969	     -6.41188381	      6.20082301	      1.19749007	      0.96426582	     -0.33417575	      6.45400998	      6.67223587	     -6.20208772	    -15.98107006	      9.97561974	      1.50204543	      2.21388568	     -6.66678632	      3.49720263	     -6.68206937	      9.97370669	     -0.99512570	      3.35463871	      5.69326960	     -8.68822016
      0.24000000	     -2.84308698	     -6.41038540	      6.19496826	      1.19770634	      0.96426488	     -0.33398290	      6.44703929	      6.68256186	     -6.20385180	    -15.98351528	      9.97572470	      1.50155596	      2.20833988	     -6.67710336	      3.49832291	     -6.68916035	      9.97407131	     -0.99291513	      3.35991139	      5.68066368	     -8.69075332
      0.25000000	     -2.84730802	     -6.40917028	      6.18891733	      1.19793420	      0.96426200	     -0.33379367	      6.43837223	      6.69337409	     -6.20587816	    -15.98426035	      9.97684275	      1.50100431	      2.20331751	     -6.68733255	      3.49898416	     -6.69779625	      9.97540473	     -0.99079850	      3.36545418	      5.66889747	     -8.69352982
      0.26000000	     -2.82310199	     -6.43908499	      6.19642671	      1.19818032	      0.96428015	     -0.33360917	      6.37710382	      6.74550843	     -6.19708514	    -15.93924100	      9.97778304	      1.48465857	      2.20036565	     -6.73412617	      3.48219982	     -6.75494723	     10.03673147	     -0.94060369	      3.34369766	      5.69530667	     -8.71708418
      0.27000000	     -2.82052283	     -6.43483284	      6.19149053	      1.19842390	      0.96428333	     -0.33344437	      6.35135950	      6.75305537	     -6.20079030	    -15.92541514	      9.98112337	      1.48062730	      2.20310983	     -6.73945709	      3.49596448	     -6.79334404	     10.04224068	     -0.92858582	      3.34299430	      5.68467790	     -8.69858136
      0.28000000	     -2.81041437	     -6.42864352	      6.18793768	      1.19864630	      0.96428668	     -0.33328154	      6.31835580	      6.76052435	     -6.19251993	    -15.91168976	      9.98872867	      1.47555170	      2.21512160	     -6.74296561	      3.50935906	     -6.86009790	     10.06592932	     -0.91771707	      3.33010777	      5.67372190	     -8.69394056
      0.29000000	     -2.79816273	     -6.42300545	      6.18404810	      1.19885869	      0.96428923	     -0.33311984	      6.28373384	      6.76900424	     -6.18378954	    -15.89748661	      9.99836889	      1.47009899	      2.23389912	     -6.74649898	      3.52259861	     -6.94324856	     10.09966165	     -0.90734595	      3.31335919	      5.66410625	     -8.68955587
